<mxfile host="www.draw.io" modified="2020-01-01T18:24:19.098Z" agent="Mozilla/5.0 (Macintosh; Intel Mac OS X 10_15_1) AppleWebKit/537.36 (KHTML, like Gecko) Chrome/79.0.3945.88 Safari/537.36" etag="rNxOF_yyPstYnPbjmocb" version="12.4.8" type="github">
  <diagram id="Rs8MqEs8put_HeRDnSsW" name="01 - directives">
    <mxGraphModel dx="996" dy="478" grid="1" gridSize="10" guides="1" tooltips="1" connect="1" arrows="1" fold="1" page="1" pageScale="1" pageWidth="1920" pageHeight="1200" math="0" shadow="0">
      <root>
        <mxCell id="0"/>
        <mxCell id="1" parent="0"/>
        <mxCell id="z5f2V-EEiVEmC1NtAZHZ-1" value="" style="strokeWidth=1;shadow=0;dashed=0;align=center;html=1;shape=mxgraph.mockup.containers.browserWindow;rSize=0;strokeColor=#666666;strokeColor2=#008cff;strokeColor3=#c4c4c4;mainText=,;recursiveResize=0;" vertex="1" parent="1">
          <mxGeometry x="300" y="110" width="550" height="400" as="geometry"/>
        </mxCell>
        <mxCell id="z5f2V-EEiVEmC1NtAZHZ-2" value="Page 1" style="strokeWidth=1;shadow=0;dashed=0;align=center;html=1;shape=mxgraph.mockup.containers.anchor;fontSize=17;fontColor=#666666;align=left;" vertex="1" parent="z5f2V-EEiVEmC1NtAZHZ-1">
          <mxGeometry x="60" y="12" width="110" height="26" as="geometry"/>
        </mxCell>
        <mxCell id="z5f2V-EEiVEmC1NtAZHZ-3" value="https://www.draw.io" style="strokeWidth=1;shadow=0;dashed=0;align=center;html=1;shape=mxgraph.mockup.containers.anchor;rSize=0;fontSize=17;fontColor=#666666;align=left;" vertex="1" parent="z5f2V-EEiVEmC1NtAZHZ-1">
          <mxGeometry x="130" y="60" width="250" height="26" as="geometry"/>
        </mxCell>
        <mxCell id="z5f2V-EEiVEmC1NtAZHZ-4" value="Prev" style="rounded=0;whiteSpace=wrap;html=1;" vertex="1" parent="z5f2V-EEiVEmC1NtAZHZ-1">
          <mxGeometry x="155" y="310" width="40" height="30" as="geometry"/>
        </mxCell>
        <mxCell id="z5f2V-EEiVEmC1NtAZHZ-5" value="1" style="rounded=0;whiteSpace=wrap;html=1;" vertex="1" parent="z5f2V-EEiVEmC1NtAZHZ-1">
          <mxGeometry x="195" y="310" width="40" height="30" as="geometry"/>
        </mxCell>
        <mxCell id="z5f2V-EEiVEmC1NtAZHZ-6" value="2" style="rounded=0;whiteSpace=wrap;html=1;" vertex="1" parent="z5f2V-EEiVEmC1NtAZHZ-1">
          <mxGeometry x="235" y="310" width="40" height="30" as="geometry"/>
        </mxCell>
        <mxCell id="z5f2V-EEiVEmC1NtAZHZ-7" value="3" style="rounded=0;whiteSpace=wrap;html=1;" vertex="1" parent="z5f2V-EEiVEmC1NtAZHZ-1">
          <mxGeometry x="275" y="310" width="40" height="30" as="geometry"/>
        </mxCell>
        <mxCell id="z5f2V-EEiVEmC1NtAZHZ-8" value="4" style="rounded=0;whiteSpace=wrap;html=1;" vertex="1" parent="z5f2V-EEiVEmC1NtAZHZ-1">
          <mxGeometry x="315" y="310" width="40" height="30" as="geometry"/>
        </mxCell>
        <mxCell id="z5f2V-EEiVEmC1NtAZHZ-10" value="Next" style="rounded=0;whiteSpace=wrap;html=1;" vertex="1" parent="z5f2V-EEiVEmC1NtAZHZ-1">
          <mxGeometry x="355" y="310" width="40" height="30" as="geometry"/>
        </mxCell>
      </root>
    </mxGraphModel>
  </diagram>
</mxfile>
